<svg xmlns="http://www.w3.org/2000/svg" xmlns:xlink="http://www.w3.org/1999/xlink" width="1200" height="630" viewBox="0 0 1200 630">
  <defs>
    <linearGradient id="bg" x1="0" y1="0" x2="0" y2="1">
      <stop offset="0%" stop-color="#FAFAFA"/>
      <stop offset="100%" stop-color="#F4F0FF"/>
    </linearGradient>
    <linearGradient id="brand" x1="0" y1="0" x2="1" y2="0">
      <stop offset="0%" stop-color="#7C3AED"/>
      <stop offset="100%" stop-color="#A78BFA"/>
    </linearGradient>
    <radialGradient id="glow" cx="0.55" cy="0.55" r="0.55">
      <stop offset="0%" stop-color="#7C3AED" stop-opacity="0.10"/>
      <stop offset="100%" stop-color="#7C3AED" stop-opacity="0"/>
    </radialGradient>
    <pattern id="grid" width="40" height="40" patternUnits="userSpaceOnUse">
      <path d="M 40 0 L 0 0 0 40" fill="none" stroke="#E5E7EB" stroke-width="0.5"/>
    </pattern>
  </defs>

  <rect width="1200" height="630" fill="url(#bg)"/>
  <rect width="1200" height="630" fill="url(#grid)"/>
  <ellipse cx="640" cy="320" rx="420" ry="240" fill="url(#glow)"/>

  <!-- Real Open Magi logo lockup top-left -->
  <image x="56" y="44" width="316" height="76" preserveAspectRatio="xMinYMid meet" xlink:href="LOGO_DATA_URI"/>

  <!-- Top right chip -->
  <g transform="translate(1140, 80)">
    <rect x="-150" y="-22" width="150" height="44" rx="22" fill="#7C3AED" fill-opacity="0.08" stroke="#7C3AED" stroke-opacity="0.35" stroke-width="1.2"/>
    <text x="-75" y="6" font-family="Inter, system-ui, sans-serif" font-size="16" font-weight="600" text-anchor="middle" dominant-baseline="middle" fill="#7C3AED" letter-spacing="0.12em">OPEN SOURCE</text>
  </g>

  <!-- Headline -->
  <g transform="translate(56, 220)">
    <text x="0" y="0" font-family="Inter, system-ui, sans-serif" font-size="76" font-weight="700" fill="#1A1A2E" letter-spacing="-0.028em">Guardrails for</text>
    <text x="0" y="88" font-family="Inter, system-ui, sans-serif" font-size="76" font-weight="700" fill="url(#brand)" letter-spacing="-0.028em">Claude Code.</text>
  </g>

  <!-- Sub -->
  <g transform="translate(56, 370)">
    <text x="0" y="0" font-family="Inter, system-ui, sans-serif" font-size="24" font-weight="400" fill="#475569" letter-spacing="-0.005em">Every tool call, prompt, and session boundary checked at runtime,</text>
    <text x="0" y="34" font-family="Inter, system-ui, sans-serif" font-size="24" font-weight="400" fill="#475569" letter-spacing="-0.005em">sealed into a tamper-evident ledger.</text>
  </g>

  <!-- Flow diagram (light cards) -->
  <g transform="translate(56, 480)">

    <!-- Box 1: Claude Code -->
    <g transform="translate(0, 0)">
      <rect x="0" y="0" width="248" height="100" rx="14" fill="#FFFFFF" stroke="rgba(0,0,0,0.06)" stroke-width="1.5"/>
      <g transform="translate(20, 28)">
        <rect x="0" y="0" width="44" height="44" rx="10" fill="#E55A2E"/>
        <text x="22" y="29" font-family="ui-monospace, Menlo, monospace" font-size="18" font-weight="700" text-anchor="middle" fill="#FFFFFF">&gt;_</text>
      </g>
      <text x="80" y="46" font-family="Inter, system-ui, sans-serif" font-size="17" font-weight="600" fill="#1A1A2E">Claude Code</text>
      <text x="80" y="68" font-family="Inter, system-ui, sans-serif" font-size="13" font-weight="400" fill="#64748B">PreToolUse · Stop · …</text>
    </g>

    <!-- Arrow 1 -->
    <g transform="translate(260, 50)">
      <line x1="0" y1="0" x2="40" y2="0" stroke="#94A3B8" stroke-width="2"/>
      <polygon points="40,-5 50,0 40,5" fill="#94A3B8"/>
    </g>

    <!-- Box 2: Magi gate (accented) -->
    <g transform="translate(320, 0)">
      <rect x="0" y="0" width="248" height="100" rx="14" fill="#F4F0FF" stroke="#7C3AED" stroke-width="2"/>
      <g transform="translate(20, 28)">
        <path d="M 22 4 L 40 12 L 40 28 C 40 36 32 42 22 44 C 12 42 4 36 4 28 L 4 12 Z" fill="#7C3AED" fill-opacity="0.18" stroke="#7C3AED" stroke-width="2"/>
        <path d="M 14 24 L 20 30 L 30 18" fill="none" stroke="#7C3AED" stroke-width="3" stroke-linecap="round" stroke-linejoin="round"/>
      </g>
      <text x="80" y="46" font-family="Inter, system-ui, sans-serif" font-size="17" font-weight="600" fill="#1A1A2E">Magi gate</text>
      <text x="80" y="68" font-family="Inter, system-ui, sans-serif" font-size="13" font-weight="400" fill="#475569">Policy evaluation</text>
    </g>

    <!-- Arrow 2 -->
    <g transform="translate(580, 50)">
      <line x1="0" y1="0" x2="40" y2="0" stroke="#94A3B8" stroke-width="2"/>
      <polygon points="40,-5 50,0 40,5" fill="#94A3B8"/>
    </g>

    <!-- Box 3: Sealed ledger -->
    <g transform="translate(640, 0)">
      <rect x="0" y="0" width="248" height="100" rx="14" fill="#FFFFFF" stroke="rgba(0,0,0,0.06)" stroke-width="1.5"/>
      <g transform="translate(20, 28)">
        <rect x="2" y="6" width="40" height="32" rx="4" fill="#10B981" fill-opacity="0.10" stroke="#047857" stroke-width="1.8"/>
        <line x1="8" y1="14" x2="36" y2="14" stroke="#047857" stroke-width="1.8"/>
        <line x1="8" y1="20" x2="32" y2="20" stroke="#047857" stroke-width="1.8"/>
        <line x1="8" y1="26" x2="36" y2="26" stroke="#047857" stroke-width="1.8"/>
        <line x1="8" y1="32" x2="28" y2="32" stroke="#047857" stroke-width="1.8"/>
      </g>
      <text x="80" y="46" font-family="Inter, system-ui, sans-serif" font-size="17" font-weight="600" fill="#1A1A2E">Sealed ledger</text>
      <text x="80" y="68" font-family="Inter, system-ui, sans-serif" font-size="13" font-weight="400" fill="#64748B">Ed25519 + hash chain</text>
    </g>

  </g>

  <!-- URL -->
  <text x="1140" y="592" font-family="ui-monospace, Menlo, monospace" font-size="16" font-weight="500" text-anchor="end" fill="#7C3AED">cp.openmagi.ai</text>
</svg>
